<svg xmlns="http://www.w3.org/2000/svg" xmlns:xlink="http://www.w3.org/1999/xlink"><symbol id="bag" viewBox="0 0 20 20"><g fill="currentColor">
<path fill-rule="evenodd" clip-rule="evenodd" d="M6 0H5.25V0.75V3.75H1.5H0V5.25V18.25V19.75H1.5H18.5H20V18.25V5.25V3.75H18.5H14.75V0.75V0H14H6ZM13.25 5.25V6.75H14.75V5.25H18.5V18.25H1.5V5.25H5.25V6.75H6.75V5.25H13.25ZM13.25 3.75V1.5H6.75V3.75H13.25Z"/>
</g></symbol><symbol id="heart" viewBox="0 0 20 18"><g fill="currentColor">
<path d="M2.74399 8.79058C2.31564 8.36212 1.98384 7.84703 1.77086 7.27984C1.55787 6.71266 1.46861 6.10649 1.50907 5.50198C1.54952 4.89748 1.71875 4.30861 2.00542 3.77486C2.29208 3.24111 2.68955 2.77482 3.17118 2.40726C3.6528 2.03969 4.20744 1.77935 4.79792 1.64369C5.38839 1.50802 6.00104 1.50017 6.5948 1.62066C7.18856 1.74115 7.74969 1.9872 8.24057 2.3423C8.73145 2.6974 9.14074 3.15336 9.44099 3.67958H10.559C10.8592 3.15336 11.2685 2.6974 11.7594 2.3423C12.2503 1.9872 12.8114 1.74115 13.4052 1.62066C13.9989 1.50017 14.6116 1.50802 15.2021 1.64369C15.7925 1.77935 16.3472 2.03969 16.8288 2.40726C17.3104 2.77482 17.7079 3.24111 17.9946 3.77486C18.2812 4.30861 18.4505 4.89748 18.4909 5.50198C18.5314 6.10649 18.4421 6.71266 18.2291 7.27984C18.0161 7.84703 17.6843 8.36212 17.256 8.79058L9.99999 16.0486L2.74399 8.79158V8.79058ZM17.962 9.50058C18.4741 8.98841 18.8747 8.3758 19.1386 7.70128C19.4025 7.02677 19.524 6.30495 19.4954 5.58121C19.4669 4.85747 19.2888 4.14748 18.9725 3.49589C18.6563 2.84429 18.2086 2.26519 17.6576 1.795C17.1067 1.32481 16.4644 0.973709 15.7712 0.763775C15.078 0.553842 14.3488 0.489618 13.6296 0.575144C12.9104 0.660669 12.2166 0.894093 11.592 1.26074C10.9673 1.62738 10.4253 2.11931 9.99999 2.70558C9.57467 2.11931 9.03265 1.62738 8.408 1.26074C7.78335 0.894093 7.08959 0.660669 6.37036 0.575144C5.65113 0.489618 4.92198 0.553842 4.22877 0.763775C3.53556 0.973709 2.89328 1.32481 2.34234 1.795C1.7914 2.26519 1.34371 2.84429 1.02743 3.49589C0.711149 4.14748 0.533117 4.85747 0.50453 5.58121C0.475944 6.30495 0.597422 7.02677 0.861326 7.70128C1.12523 8.3758 1.52585 8.98841 2.03799 9.50058L9.99999 17.4616L17.962 9.50158V9.50058Z"/>
<path fill-rule="none" clip-rule="evenodd" d="M3.04399 8.66733L9.99997 15.6243L17.0438 8.57848L17.256 8.79058L9.99999 16.0486L2.74399 8.79158V8.79058C2.31564 8.36212 1.98384 7.84703 1.77086 7.27984C1.55787 6.71266 1.46861 6.10649 1.50907 5.50198C1.54952 4.89748 1.71875 4.30861 2.00542 3.77486C2.29208 3.24111 2.68955 2.77482 3.17118 2.40726C3.6528 2.03969 4.20744 1.77935 4.79792 1.64369C5.38839 1.50802 6.00104 1.50017 6.5948 1.62066C7.18856 1.74115 7.74969 1.9872 8.24057 2.3423C8.73145 2.6974 9.14074 3.15336 9.44099 3.67958H10.559C10.8592 3.15336 11.2685 2.6974 11.7594 2.3423C12.2503 1.9872 12.8114 1.74115 13.4052 1.62066C13.9989 1.50017 14.6116 1.50802 15.2021 1.64369C15.7925 1.77935 16.3472 2.03969 16.8288 2.40726C17.3104 2.77482 17.7079 3.24111 17.9946 3.77486C18.2812 4.30861 18.4505 4.89748 18.4909 5.50198C18.5314 6.10649 18.4421 6.71266 18.2291 7.27984C18.0161 7.84703 17.6843 8.36212 17.256 8.79058L17.0438 8.57848C17.4419 8.18026 17.7503 7.70153 17.9483 7.17438C18.1462 6.64723 18.2292 6.08385 18.1916 5.52201C18.154 4.96018 17.9967 4.41288 17.7303 3.91681C17.4638 3.42073 17.0944 2.98736 16.6468 2.64574C16.1992 2.30412 15.6837 2.06216 15.1349 1.93607C14.5861 1.80998 14.0167 1.80269 13.4648 1.91467C12.913 2.02666 12.3915 2.25533 11.9352 2.58537C11.479 2.91541 11.0986 3.33917 10.8196 3.82825L10.7332 3.97958H9.26676L9.18042 3.82825C8.90136 3.33917 8.52097 2.91541 8.06473 2.58537C7.6085 2.25533 7.08698 2.02666 6.53514 1.91467C5.98329 1.80269 5.41389 1.80998 4.86509 1.93607C4.3163 2.06216 3.80081 2.30412 3.35318 2.64574C2.90556 2.98736 2.53614 3.42073 2.26971 3.91681C2.00328 4.41288 1.846 4.96018 1.8084 5.52201C1.7708 6.08385 1.85375 6.64723 2.05171 7.17438C2.24966 7.70153 2.55803 8.18026 2.95615 8.57848L3.04399 8.66733ZM2.03799 9.50058C1.52585 8.98841 1.12523 8.3758 0.861326 7.70128C0.597422 7.02677 0.475944 6.30495 0.50453 5.58121C0.533117 4.85747 0.711149 4.14748 1.02743 3.49589C1.34371 2.84429 1.7914 2.26519 2.34234 1.795C2.89328 1.32481 3.53556 0.973709 4.22877 0.763775C4.92198 0.553842 5.65113 0.489618 6.37036 0.575144C7.08959 0.660669 7.78335 0.894093 8.408 1.26074C8.94283 1.57466 9.41708 1.98043 9.80938 2.45862C9.87526 2.53893 9.93883 2.62128 9.99999 2.70558C10.0611 2.62128 10.1247 2.53893 10.1906 2.45862C10.5829 1.98043 11.0571 1.57466 11.592 1.26074C12.2166 0.894093 12.9104 0.660669 13.6296 0.575144C14.3488 0.489618 15.078 0.553842 15.7712 0.763775C16.4644 0.973709 17.1067 1.32481 17.6576 1.795C18.2086 2.26519 18.6563 2.84429 18.9725 3.49589C19.2888 4.14748 19.4669 4.85747 19.4954 5.58121C19.524 6.30495 19.4025 7.02677 19.1386 7.70128C18.8747 8.3758 18.4741 8.98841 17.962 9.50058V9.50158L9.99999 17.4616L2.03799 9.50058ZM18.262 9.62283V9.62587L9.99997 17.8858L1.82587 9.71273C1.28446 9.17128 0.860931 8.52365 0.581948 7.81059C0.302964 7.09753 0.174544 6.33446 0.204764 5.56937C0.234984 4.80428 0.42319 4.05371 0.757545 3.36488C1.0919 2.67605 1.56517 2.06386 2.14759 1.5668C2.73002 1.06975 3.40899 0.698583 4.14181 0.476653C4.87463 0.254723 5.64545 0.18683 6.40578 0.277242C7.16612 0.367655 7.89952 0.614417 8.55986 1.00201C9.1066 1.32292 9.59346 1.73463 9.99999 2.21856C10.4065 1.73463 10.8934 1.32292 11.4401 1.00201C12.1005 0.614417 12.8339 0.367655 13.5942 0.277242C14.3545 0.18683 15.1253 0.254723 15.8582 0.476653C16.591 0.698583 17.27 1.06975 17.8524 1.5668C18.4348 2.06386 18.9081 2.67605 19.2424 3.36488C19.5768 4.05371 19.765 4.80428 19.7952 5.56937C19.8254 6.33446 19.697 7.09753 19.418 7.81059C19.1543 8.48461 18.7615 9.10015 18.262 9.62283Z"/>
</g></symbol><symbol id="instagram" viewBox="0 0 16 16"><g fill="currentColor">
<path fill-rule="evenodd" clip-rule="evenodd" d="M4.70205 0.0483339C5.5554 0.00950011 5.82807 0 8.00076 0H7.99826C10.1716 0 10.4433 0.00950011 11.2966 0.0483339C12.1483 0.0873344 12.73 0.222169 13.24 0.420005C13.7667 0.624174 14.2117 0.89751 14.6567 1.34252C15.1017 1.78719 15.375 2.23353 15.58 2.7597C15.7767 3.26837 15.9117 3.84971 15.9517 4.70139C15.99 5.55473 16 5.8274 16 8.00009C16 10.1728 15.99 10.4448 15.9517 11.2981C15.9117 12.1495 15.7767 12.731 15.58 13.2398C15.375 13.7658 15.1017 14.2122 14.6567 14.6568C14.2122 15.1018 13.7665 15.3758 13.2405 15.5802C12.7315 15.778 12.1495 15.9129 11.2978 15.9519C10.4445 15.9907 10.1726 16.0002 7.99976 16.0002C5.82723 16.0002 5.55473 15.9907 4.70139 15.9519C3.84988 15.9129 3.26837 15.778 2.75937 15.5802C2.23353 15.3758 1.78719 15.1018 1.34268 14.6568C0.897844 14.2122 0.624507 13.7658 0.420005 13.2397C0.222336 12.731 0.087501 12.1496 0.0483339 11.298C0.00966676 10.4446 0 10.1728 0 8.00009C0 5.8274 0.0100001 5.55456 0.0481672 4.70122C0.086501 3.84988 0.221503 3.26837 0.419838 2.75953C0.624841 2.23353 0.898177 1.78719 1.34318 1.34252C1.78785 0.897677 2.23419 0.624341 2.76037 0.420005C3.26904 0.222169 3.85038 0.0873344 4.70205 0.0483339ZM7.73388 1.44161H7.73421L8.00085 1.44168C10.1369 1.44168 10.39 1.44935 11.2336 1.48768C12.0136 1.52335 12.4369 1.65369 12.7189 1.76319C13.0922 1.90819 13.3584 2.08152 13.6382 2.36153C13.9182 2.64153 14.0916 2.9082 14.2369 3.28154C14.3464 3.56321 14.4769 3.98655 14.5124 4.76656C14.5508 5.6099 14.5591 5.86324 14.5591 7.99826C14.5591 10.1333 14.5508 10.3866 14.5124 11.23C14.4768 12.01 14.3464 12.4333 14.2369 12.715C14.0919 13.0883 13.9182 13.3542 13.6382 13.634C13.3582 13.914 13.0924 14.0873 12.7189 14.2323C12.4372 14.3423 12.0136 14.4723 11.2336 14.508C10.3902 14.5463 10.1369 14.5547 8.00085 14.5547C5.86465 14.5547 5.61148 14.5463 4.76814 14.508C3.98813 14.472 3.56479 14.3417 3.28262 14.2322C2.90929 14.0872 2.64262 13.9138 2.36261 13.6338C2.08261 13.3538 1.90927 13.0878 1.76394 12.7143C1.65444 12.4326 1.52394 12.0093 1.48844 11.2293C1.4501 10.386 1.44244 10.1326 1.44244 7.99626C1.44244 5.8599 1.4501 5.6079 1.48844 4.76456C1.5241 3.98455 1.65444 3.56121 1.76394 3.27921C1.90894 2.90587 2.08261 2.6392 2.36261 2.35919C2.64262 2.07919 2.90929 1.90586 3.28262 1.76052C3.56463 1.65052 3.98813 1.52052 4.76814 1.48468C5.50615 1.45135 5.79215 1.44135 7.28317 1.43968V1.44168C7.42243 1.44147 7.57223 1.44153 7.73388 1.44161ZM12.2713 2.77004C11.7413 2.77004 11.3113 3.19955 11.3113 3.72972C11.3113 4.25972 11.7413 4.68973 12.2713 4.68973C12.8013 4.68973 13.2313 4.25972 13.2313 3.72972C13.2313 3.19971 12.8013 2.76971 12.2713 2.76971V2.77004Z"/>
<path fill-rule="evenodd" clip-rule="evenodd" d="M3.89233 7.99998C3.89233 5.73118 5.73176 3.89169 8.00055 3.8916C10.2694 3.8916 12.1084 5.73112 12.1084 7.99998C12.1084 10.2688 10.2696 12.1075 8.00071 12.1075C5.73186 12.1075 3.89233 10.2688 3.89233 7.99998ZM10.6673 7.99996C10.6673 6.52711 9.47325 5.33326 8.00057 5.33326C6.52772 5.33326 5.33387 6.52711 5.33387 7.99996C5.33387 9.47264 6.52772 10.6667 8.00057 10.6667C9.47325 10.6667 10.6673 9.47264 10.6673 7.99996Z"/>
</g></symbol><symbol id="mail" viewBox="0 0 21 16"><g fill="currentColor">
<path fill-rule="evenodd" clip-rule="evenodd" d="M18.5 3.23408L10.7346 8.49822L10.3137 8.7835L9.89289 8.49822L1.5 2.80873V14.5H18.5V3.23408ZM2.24266 1.5L10.3137 6.97133L18.3848 1.5H2.24266ZM0 0H1.5H18.5H20V1.5V2.11329L20.0483 2.18451L20 2.21724V14.5V16H18.5H1.5H0V14.5V1.5V0Z"/>
</g></symbol><symbol id="man" viewBox="0 0 19 19"><g stroke="currentColor">
<path d="M18 18.5V14H1V18.5" stroke-width="1.4"/>
<circle cx="9.5" cy="5.5" r="4.8" stroke-width="1.4"/>
</g></symbol><symbol id="phone" viewBox="0 0 21 21"><g stroke="currentColor">
<path fill-rule="evenodd" clip-rule="evenodd" d="M1 3.37753L4.30288 1.00627C4.30288 1.00627 4.39654 0.906274 5.00967 1.50499C5.6228 2.10371 7.73825 4.86252 7.73825 4.86252L7.01421 7.88282L12.633 13.4993L15.6524 12.7763L18.9923 15.2441L19.5089 16.2115L17.1375 19.5142L13.5132 19.4803L1.03389 7.00169L1 3.37753Z" stroke-width="1.5" stroke-linecap="round" stroke-linejoin="round"/>
</g></symbol></svg>