<svg width="16" height="16" fill="none" xmlns="http://www.w3.org/2000/svg"><path fill-rule="evenodd" clip-rule="evenodd" d="M4.702.048C5.555.01 5.828 0 8.001 0h-.003c2.174 0 2.445.01 3.299.048.851.04 1.433.174 1.943.372a3.91 3.91 0 0 1 1.417.923c.445.444.718.89.923 1.417.197.508.332 1.09.372 1.941.038.854.048 1.126.048 3.3 0 2.172-.01 2.444-.048 3.297-.04.851-.175 1.433-.372 1.942a3.927 3.927 0 0 1-.923 1.417c-.445.445-.89.719-1.416.923-.51.198-1.091.333-1.943.372C10.444 15.99 10.173 16 8 16s-2.445-.01-3.299-.048c-.851-.04-1.433-.174-1.942-.372a3.918 3.918 0 0 1-1.416-.923A3.92 3.92 0 0 1 .42 13.24c-.198-.509-.332-1.09-.372-1.942C.01 10.445 0 10.173 0 8s.01-2.445.048-3.299C.087 3.85.222 3.268.42 2.76a3.92 3.92 0 0 1 .923-1.417A3.917 3.917 0 0 1 2.76.42C3.27.222 3.85.087 4.702.048Zm3.032 1.394h.267c2.136 0 2.389.007 3.233.046.78.035 1.203.166 1.485.275.373.145.64.319.92.599.28.28.453.546.598.92.11.281.24.705.275 1.485.039.843.047 1.096.047 3.231s-.008 2.389-.047 3.232c-.035.78-.166 1.203-.275 1.485a2.47 2.47 0 0 1-.599.919c-.28.28-.546.453-.92.598-.28.11-.704.24-1.484.276-.844.038-1.097.047-3.233.047s-2.39-.009-3.233-.047c-.78-.036-1.203-.166-1.485-.276a2.478 2.478 0 0 1-.92-.598 2.48 2.48 0 0 1-.6-.92c-.109-.281-.24-.705-.275-1.485-.038-.843-.046-1.096-.046-3.233 0-2.136.008-2.388.046-3.231.036-.78.166-1.204.276-1.486.145-.373.319-.64.599-.92.28-.28.546-.453.92-.598.282-.11.705-.24 1.485-.276.738-.034 1.024-.044 2.515-.045v.002h.45ZM12.27 2.77a.96.96 0 1 0 0 1.92.96.96 0 0 0 0-1.92Z" fill="#BB8C5F"/><path fill-rule="evenodd" clip-rule="evenodd" d="M3.892 8a4.109 4.109 0 1 1 8.217 0 4.109 4.109 0 0 1-8.217 0Zm6.775 0a2.667 2.667 0 1 0-5.333 0 2.667 2.667 0 0 0 5.333 0Z" fill="#BB8C5F"/></svg>