<svg width="25" height="25" fill="none" xmlns="http://www.w3.org/2000/svg"><path fill-rule="evenodd" clip-rule="evenodd" d="M24.457 12.044c-.003 6.556-5.336 11.89-11.893 11.893h-.005c-1.99 0-3.946-.5-5.683-1.448L.572 24.143l1.687-6.163A11.871 11.871 0 0 1 .67 12.035C.674 5.478 6.01.143 12.564.143a11.816 11.816 0 0 1 8.413 3.488 11.82 11.82 0 0 1 3.48 8.413Zm-21.03 9.274 3.741-.982.36.215a9.87 9.87 0 0 0 5.032 1.377h.004c5.448 0 9.882-4.434 9.884-9.884a9.825 9.825 0 0 0-2.892-6.993 9.817 9.817 0 0 0-6.988-2.9c-5.452 0-9.887 4.435-9.889 9.885a9.86 9.86 0 0 0 1.511 5.26l.235.374-.998 3.648Z" fill="#BB8C5F"/><path d="M18.32 15.615c-.074-.124-.272-.198-.57-.347-.297-.149-1.758-.868-2.03-.967-.272-.099-.47-.148-.669.149-.198.297-.767.967-.94 1.165-.174.198-.347.223-.644.075-.297-.15-1.255-.463-2.39-1.475-.883-.788-1.48-1.761-1.653-2.059-.173-.297-.018-.458.13-.606.134-.134.297-.348.446-.521.149-.174.198-.297.297-.496.1-.198.05-.372-.025-.52-.074-.15-.668-1.612-.916-2.207-.241-.58-.486-.5-.668-.51a11.81 11.81 0 0 0-.57-.01c-.198 0-.52.074-.792.372-.273.297-1.04 1.016-1.04 2.478 0 1.463 1.064 2.876 1.213 3.075.149.198 2.095 3.2 5.076 4.486.71.307 1.263.49 1.694.626.712.227 1.36.195 1.872.118.57-.085 1.758-.719 2.006-1.413.247-.694.247-1.289.173-1.413Z" fill="#BB8C5F"/></svg>